<svg width="33" height="32" viewBox="0 0 33 32" fill="none" xmlns="http://www.w3.org/2000/svg">
<path d="M20.3694 23.5747V17.9642H12.6308V23.5747C12.6308 23.9267 12.414 24.2423 12.0854 24.3687L4.04578 27.4602V30.0899H28.9544V27.4602L20.9148 24.3687C20.5862 24.2423 20.3694 23.9267 20.3694 23.5747Z" fill="#FAA68E"/>
<path d="M20.9147 24.3687C20.5862 24.2423 20.3694 23.9267 20.3694 23.5747V17.9642H18.9902V24.3872C18.9902 24.7392 19.207 25.0548 19.5356 25.1812L27.5752 28.2727V30.0899H28.9544V27.4602L20.9147 24.3687Z" fill="#E09380"/>
<path d="M4.55364 26.854H28.4465C29.8701 26.854 31.0241 28.008 31.0241 29.4316V31.2188C31.0241 31.3913 30.8841 31.5313 30.7116 31.5313H2.28864C2.11607 31.5313 1.97614 31.3913 1.97614 31.2188V29.4316C1.97614 28.0081 3.13014 26.854 4.55364 26.854Z" fill="#6CBFF8"/>
<path d="M28.4465 26.854H26.6965C28.1201 26.854 29.2741 28.008 29.2741 29.4316V31.5313H30.7116C30.8842 31.5313 31.0241 31.3913 31.0241 31.2188V29.4316C31.024 28.0081 29.87 26.854 28.4465 26.854Z" fill="#5FA7EE"/>
<path d="M16.0084 0.468781H16.9917C21.6664 0.468781 25.4559 4.25834 25.4559 8.93303V13.4619H7.54419V8.93303C7.54419 4.25834 11.3338 0.468781 16.0084 0.468781Z" fill="#6CBFF8"/>
<path d="M16.9917 0.468781H16.0084C15.8799 0.468781 15.7522 0.472156 15.6251 0.477843C20.1217 0.678343 23.7059 4.38691 23.7059 8.93303V13.4619H25.4559V8.93303C25.4559 4.25834 21.6663 0.468781 16.9917 0.468781Z" fill="#5FA7EE"/>
<path d="M25.1496 14.9587H22.0525V12.026H25.1496C25.9594 12.026 26.6159 12.6825 26.6159 13.4923C26.6159 14.3022 25.9594 14.9587 25.1496 14.9587Z" fill="#E09380"/>
<path d="M7.85047 14.9587H10.9475V12.026H7.85047C7.04066 12.026 6.38416 12.6825 6.38416 13.4923C6.38409 14.3021 7.04059 14.9587 7.85047 14.9587Z" fill="#E09380"/>
<path d="M23.6609 11.1358V15.8852C23.6609 17.9837 19.8883 22.4788 17.3247 22.4788C16.0052 22.4788 16.8781 22.4788 15.6754 22.4788C13.16 22.4788 9.33917 18.0428 9.33917 15.8852V10.6003C12.9247 5.3386 20.3342 5.5171 23.6609 11.1358Z" fill="#FAA68E"/>
<path d="M16.4934 22.8128C12.1371 22.8128 9.72083 16.5484 11.041 14.9206C12.9687 12.5435 20.0181 12.5435 21.9459 14.9206C23.266 16.5484 21.0045 22.8128 16.4934 22.8128Z" fill="#DDEBFD"/>
<path d="M21.9459 14.9206C21.0313 13.7928 18.9639 13.2005 16.8376 13.1428C18.2306 13.4081 19.4342 13.9348 20.0737 14.7235C21.346 16.2923 19.2911 22.1672 15.102 22.5906C15.5397 22.7332 16.0042 22.8127 16.4934 22.8127C21.0045 22.8128 23.2659 16.5484 21.9459 14.9206Z" fill="#BED9FD"/>
<path d="M15.535 17.0108H17.465V24.0271H15.535V17.0108Z" fill="#407194"/>
<path d="M14.8511 31.5313V23.9698C14.8511 23.0591 15.5894 22.3208 16.5001 22.3208C17.4108 22.3208 18.149 23.0591 18.149 23.9698V31.5313H14.8511Z" fill="#DDEBFD"/>
<path d="M16.8251 19.4744C17.9481 19.2924 18.711 18.2344 18.5289 17.1113C18.3468 15.9883 17.2888 15.2254 16.1658 15.4075C15.0427 15.5895 14.2799 16.6475 14.462 17.7706C14.644 18.8936 15.702 19.6565 16.8251 19.4744Z" fill="#4981F8"/>
<path d="M28.4441 26.386H27.4625L21.0819 23.9327C20.9356 23.8765 20.8373 23.7331 20.8373 23.5759V21.2345C22.4996 19.7629 24.1279 17.4606 24.1279 15.8879V15.4305H25.1478C26.2145 15.4305 27.0824 14.5626 27.0824 13.4959C27.0824 12.7043 26.6046 12.0226 25.9226 11.7231V8.93731C25.9226 4.01249 21.9162 0.00580576 16.9917 0.00580576C16.6857 0.0702433 11.9181 -0.617632 8.7855 3.68287C8.63307 3.89212 8.67919 4.18524 8.88838 4.33768C9.09769 4.49006 9.39082 4.44387 9.54313 4.23481C12.3589 0.369181 16.6887 1.00587 16.9917 0.943181C21.3993 0.943181 24.9853 4.52931 24.9853 8.93737V11.5607H24.1279C24.1144 11.211 24.1656 11.0748 24.0625 10.9007C22.3602 8.02512 19.5668 6.41806 16.6035 6.32374C13.6753 6.23118 10.8036 7.62462 8.95326 10.34C8.81719 10.5397 8.89413 10.663 8.87188 11.5607H8.01451V8.93737C8.01451 7.93737 8.19657 6.96224 8.55563 6.03912C8.64944 5.79787 8.52994 5.52624 8.28876 5.43243C8.04757 5.33881 7.77588 5.45812 7.68207 5.69937C7.28069 6.73131 7.07719 7.82074 7.07719 8.93743V11.7232C6.39513 12.0227 5.91738 12.7044 5.91738 13.496C5.91738 14.5627 6.78526 15.4306 7.85201 15.4306H8.87182V15.8881C8.87182 16.9895 9.66601 18.2914 10.1394 18.9694C10.7133 19.7914 11.4237 20.5831 12.1624 21.2332V23.5761C12.1624 23.7332 12.0642 23.8766 11.9181 23.9329L5.53757 26.386H4.55588C2.87651 26.386 1.51019 27.7523 1.51019 29.4317V31.2188C1.51019 31.6495 1.86057 31.9999 2.29132 31.9999H24.248C24.5068 31.9999 24.7167 31.7901 24.7167 31.5312C24.7167 31.2724 24.5069 31.0626 24.248 31.0626H18.6173V27.3232H28.4441C29.6066 27.3232 30.5524 28.2691 30.5524 29.4316V31.0626H26.4351C26.1763 31.0626 25.9664 31.2724 25.9664 31.5312C25.9664 31.7901 26.1762 31.9999 26.4351 31.9999H30.7086C31.1393 31.9999 31.4898 31.6496 31.4898 31.2188V29.4317C31.4898 27.7524 30.1235 26.386 28.4441 26.386ZM24.8508 26.386H18.6173V23.9711C18.6173 23.5975 18.5196 23.2463 18.349 22.9413C18.9206 22.7241 19.438 22.4153 19.9 22.0452V23.5759C19.9 24.118 20.2397 24.613 20.7454 24.8076L24.8508 26.386ZM11.4733 17.9589C11.0056 16.5852 11.1024 15.5929 11.4056 15.2189C12.1986 14.2415 14.1954 13.6101 16.4934 13.6101H16.4944C18.7918 13.6102 20.7882 14.2418 21.5807 15.2189C21.9607 15.6875 21.9325 16.8652 21.5121 18.083C20.7664 20.243 19.3386 21.5747 17.9335 22.092V19.5234C18.5944 19.0668 19.0286 18.3044 19.0286 17.4421C19.0286 16.0479 17.8943 14.9135 16.5 14.9135C15.1058 14.9135 13.9714 16.0478 13.9714 17.4421C13.9714 18.3043 14.4056 19.0668 15.0665 19.5234V22.0785C13.8066 21.5863 12.2677 20.2929 11.4733 17.9589ZM16.5 19.0334C15.6226 19.0334 14.9088 18.3196 14.9088 17.4422C14.9088 16.5648 15.6226 15.851 16.5 15.851C17.3774 15.851 18.0912 16.5648 18.0912 17.4422C18.0912 18.3196 17.3774 19.0334 16.5 19.0334ZM16.9962 19.9215V21.9132C16.6789 21.8367 16.3421 21.8316 16.0039 21.9132V19.9215C16.3294 19.9866 16.6654 19.9876 16.9962 19.9215ZM16.5 22.7912C17.1506 22.7912 17.68 23.3205 17.68 23.9711V25.0827C16.9669 24.6023 16.0333 24.6022 15.32 25.0827V23.9711C15.32 23.3206 15.8494 22.7912 16.5 22.7912ZM15.32 26.8589C15.32 26.8575 15.3202 26.8561 15.3202 26.8547C15.3202 26.8532 15.32 26.8519 15.32 26.8504V26.84C15.32 26.1894 15.8494 25.66 16.5 25.66C17.1506 25.66 17.68 26.1894 17.68 26.84V26.8504C17.68 26.8519 17.6798 26.8532 17.6798 26.8547C17.6798 26.8561 17.68 26.8575 17.68 26.8589V28.0888C16.9669 27.6084 16.0333 27.6082 15.32 28.0888V26.8589ZM25.1478 12.4979C25.6978 12.4979 26.1451 12.9456 26.1451 13.4959C26.1451 14.0458 25.6978 14.4932 25.1478 14.4932H24.128V12.4979H25.1478ZM7.85219 14.4931C7.30226 14.4931 6.85488 14.0457 6.85488 13.4958C6.85488 12.9456 7.30226 12.4979 7.85219 12.4979H8.872V14.4931H7.85219ZM9.80938 15.8879V10.7502C11.4671 8.39481 13.9908 7.17806 16.5738 7.26049C19.2835 7.34674 21.6884 8.80574 23.1907 11.2693V15.8879C23.1907 16.3222 22.9847 16.9038 22.6399 17.5357C22.9114 16.3037 22.7987 15.2327 22.3087 14.6286C21.0931 13.1294 18.4144 12.6728 16.4945 12.6727H16.4934C14.5602 12.6727 11.8902 13.1338 10.6776 14.6286C10.1757 15.2475 10.0791 16.3333 10.3939 17.6079C10.0287 16.9529 9.80938 16.3453 9.80938 15.8879ZM12.2548 24.8076C12.7603 24.6129 13.0999 24.118 13.0999 23.5759V21.9962C13.5893 22.3986 14.1135 22.7125 14.6582 22.9287C14.4831 23.2367 14.3826 23.5923 14.3826 23.9712V26.3861H8.14926L12.2548 24.8076ZM2.44757 29.4317C2.44757 28.2692 3.39338 27.3234 4.55594 27.3234H14.3827V31.0627H2.44757V29.4317ZM15.32 31.0627V29.8459C15.32 29.1953 15.8494 28.666 16.5 28.666C17.1506 28.666 17.68 29.1953 17.68 29.8459V31.0627H15.32Z" fill="black"/>
<path d="M12.4011 11.4532H13.5456C13.8044 11.4532 14.0142 11.2434 14.0142 10.9845C14.0142 10.7257 13.8044 10.5158 13.5456 10.5158H12.4011C12.1422 10.5158 11.9324 10.7257 11.9324 10.9845C11.9324 11.2434 12.1422 11.4532 12.4011 11.4532Z" fill="black"/>
<path d="M19.4547 11.4532H20.5991C20.858 11.4532 21.0678 11.2434 21.0678 10.9845C21.0678 10.7257 20.858 10.5158 20.5991 10.5158H19.4547C19.1958 10.5158 18.986 10.7257 18.986 10.9845C18.986 11.2434 19.1958 11.4532 19.4547 11.4532Z" fill="black"/>
</svg>
