<svg width="27" height="32" viewBox="0 0 27 32" fill="none" xmlns="http://www.w3.org/2000/svg">
<path d="M6.87495 10H7.63207V7.56519C7.63207 6.61225 8.40732 5.837 9.36026 5.837H17.6396C18.5926 5.837 19.3678 6.61225 19.3678 7.56519V10H20.1249C20.5544 10 20.9498 10.1447 21.2659 10.3876V5.58369C21.2659 2.75881 18.9759 0.46875 16.151 0.46875H10.8489C8.02401 0.46875 5.73395 2.75875 5.73395 5.58369V10.3876C6.05014 10.1447 6.44557 10 6.87495 10Z" fill="#BB5D4C"/>
<path d="M6.87495 10H7.56957V7.56519C7.56957 6.95412 7.87582 6.41488 8.34301 6.09175V5.58369C8.34301 2.75881 10.633 0.46875 13.4579 0.46875H10.8489C8.02407 0.46875 5.73401 2.75875 5.73401 5.58369V10.3876C6.05013 10.1447 6.44557 10 6.87495 10Z" fill="#A44F3E"/>
<path d="M25.5123 31.5312H1.48761C1.14242 31.5312 0.86261 31.2514 0.86261 30.9062V21.8744C0.86261 20.3211 2.1218 19.0619 3.67511 19.0619H23.3249C24.8782 19.0619 26.1374 20.3211 26.1374 21.8744V30.9062C26.1373 31.2514 25.8575 31.5312 25.5123 31.5312Z" fill="#05E39C"/>
<path d="M3.47523 30.9062V21.8744C3.47523 20.3211 4.73442 19.0619 6.28773 19.0619H3.67511C2.1218 19.0619 0.86261 20.3211 0.86261 21.8744V30.9062C0.86261 31.2514 1.14242 31.5312 1.48761 31.5312H4.10023C3.75505 31.5312 3.47523 31.2514 3.47523 30.9062Z" fill="#0ED290"/>
<path d="M15.8689 17.5128C15.5301 17.592 15.1774 17.6353 14.8143 17.6353H12.1856C11.8226 17.6353 11.4699 17.592 11.131 17.5128V19.0619H8.93744L13.2573 24.3883C13.3823 24.5424 13.6176 24.5424 13.7427 24.3883L18.0624 19.0619H15.8689V17.5128Z" fill="#EA9B58"/>
<path d="M13.7427 24.3882L14.6502 23.2693L11.131 19.0619H8.93744L13.2573 24.3882C13.3823 24.5424 13.6176 24.5424 13.7427 24.3882Z" fill="#D88A55"/>
<path d="M20.1249 10H19.4303V13.0192C19.4303 13.518 19.3502 13.9978 19.2039 14.4478H20.1249C21.1605 14.4478 21.9999 13.6083 21.9999 12.5728V11.875C21.9999 10.8394 21.1605 10 20.1249 10Z" fill="#EA9B58"/>
<path d="M7.56956 13.0192V10H6.87494C5.83938 10 4.99994 10.8394 4.99994 11.875V12.5728C4.99994 13.6084 5.83938 14.4478 6.87494 14.4478H7.796C7.64969 13.9978 7.56956 13.518 7.56956 13.0192Z" fill="#EA9B58"/>
<path d="M14.8144 17.6353H12.1856C9.63627 17.6353 7.56958 15.5686 7.56958 13.0193V7.56519C7.56958 6.57619 8.37133 5.77451 9.36027 5.77451H17.6396C18.6286 5.77451 19.4303 6.57626 19.4303 7.56519V13.0193C19.4304 15.5686 17.3637 17.6353 14.8144 17.6353Z" fill="#F6A96C"/>
<path d="M9.5142 13.0193V7.56519C9.5142 6.57619 10.316 5.77451 11.3049 5.77451H9.36027C8.37127 5.77451 7.56958 6.57626 7.56958 7.56519V13.0193C7.56958 15.5686 9.63621 17.6353 12.1856 17.6353H14.1302C11.5809 17.6353 9.5142 15.5686 9.5142 13.0193Z" fill="#EA9B58"/>
<path d="M8.24994 24.8438H7.21869C7.11513 24.8438 7.03119 24.7598 7.03119 24.6562V23.625C7.03119 23.5214 6.94725 23.4375 6.84369 23.4375H5.65619C5.55263 23.4375 5.46869 23.5214 5.46869 23.625V24.6562C5.46869 24.7598 5.38475 24.8438 5.28119 24.8438H4.24994C4.14638 24.8438 4.06244 24.9277 4.06244 25.0312V26.2188C4.06244 26.3223 4.14638 26.4062 4.24994 26.4062H5.28119C5.38475 26.4062 5.46869 26.4902 5.46869 26.5938V27.625C5.46869 27.7286 5.55263 27.8125 5.65619 27.8125H6.84369C6.94725 27.8125 7.03119 27.7286 7.03119 27.625V26.5938C7.03119 26.4902 7.11513 26.4062 7.21869 26.4062H8.24994C8.3535 26.4062 8.43744 26.3223 8.43744 26.2188V25.0312C8.43744 24.9277 8.3535 24.8438 8.24994 24.8438Z" fill="#26A6FE"/>
<path d="M22.7499 28.125H17.3749C17.2714 28.125 17.1874 28.0411 17.1874 27.9375V24.5625C17.1874 24.4589 17.2714 24.375 17.3749 24.375H22.7499C22.8535 24.375 22.9374 24.4589 22.9374 24.5625V27.9375C22.9374 28.0411 22.8535 28.125 22.7499 28.125Z" fill="white"/>
<path d="M19.0624 27.9375V24.5625C19.0624 24.4589 19.1464 24.375 19.2499 24.375H17.3749C17.2714 24.375 17.1874 24.4589 17.1874 24.5625V27.9375C17.1874 28.0411 17.2714 28.125 17.3749 28.125H19.2499C19.1464 28.125 19.0624 28.0411 19.0624 27.9375Z" fill="#F3F0F3"/>
<path d="M23.3248 18.5932H21.9374C21.6785 18.5932 21.4687 18.8031 21.4687 19.0619C21.4687 19.3208 21.6785 19.5307 21.9374 19.5307H23.3248C24.6171 19.5307 25.6685 20.5821 25.6685 21.8744V30.9062C25.6685 30.9924 25.5984 31.0625 25.5123 31.0625H7.31244C7.0535 31.0625 6.84369 31.2724 6.84369 31.5312C6.84369 31.7901 7.0535 32 7.31244 32H25.5123C26.1153 32 26.606 31.5093 26.606 30.9062V21.8744C26.6061 20.0651 25.1341 18.5932 23.3248 18.5932Z" fill="black"/>
<path d="M5.12498 31.0625H1.48761C1.40142 31.0625 1.33136 30.9924 1.33136 30.9062V21.8744C1.33136 20.5821 2.38274 19.5307 3.67511 19.5307H8.71417L12.8932 24.6835C13.0423 24.8673 13.2634 24.9726 13.5 24.9726C13.7366 24.9726 13.9577 24.8672 14.1068 24.6835L18.2859 19.5307H19.75C20.0089 19.5307 20.2187 19.3208 20.2187 19.0619C20.2187 18.8031 20.0089 18.5932 19.75 18.5932H16.3377V17.8706C17.7914 17.4132 18.9647 16.3188 19.5309 14.9166H20.125C21.4174 14.9166 22.4687 13.8652 22.4687 12.5728V11.875C22.4687 11.2056 22.1862 10.6014 21.7347 10.1739V5.58369C21.7347 2.50481 19.2299 0 16.151 0H10.8489C7.77005 0 5.26523 2.50481 5.26523 5.58369V10.1739C4.8138 10.6014 4.53123 11.2056 4.53123 11.875V12.5728C4.53123 13.8652 5.58261 14.9166 6.87498 14.9166H7.46905C8.03523 16.3188 9.20861 17.4132 10.6623 17.8707V18.5933H3.67511C1.86586 18.5933 0.39386 20.0652 0.39386 21.8745V30.9062C0.39386 31.5093 0.884547 32 1.48761 32H5.12498C5.38392 32 5.59373 31.7901 5.59373 31.5312C5.59373 31.2724 5.38392 31.0625 5.12498 31.0625ZM21.5312 12.5728C21.5312 13.3482 20.9004 13.9791 20.125 13.9791H19.8073C19.867 13.6681 19.8992 13.3474 19.8992 13.0193V10.4688H20.125C20.9004 10.4688 21.5312 11.0996 21.5312 11.875V12.5728ZM6.87498 13.9791C6.09961 13.9791 5.46873 13.3482 5.46873 12.5728V11.875C5.46873 11.0996 6.09961 10.4688 6.87498 10.4688H7.1008V13.0192C7.1008 13.3474 7.13298 13.6681 7.19267 13.979L6.87498 13.9791ZM8.03836 13.0192V7.56519C8.03836 6.83625 8.63142 6.24325 9.36036 6.24325H11.375C11.6339 6.24325 11.8437 6.03337 11.8437 5.7745C11.8437 5.51562 11.6339 5.30575 11.375 5.30575H9.36036C8.11442 5.30575 7.10086 6.31931 7.10086 7.56519V9.53125H6.87498C6.64136 9.53125 6.4158 9.56606 6.20273 9.63V5.58369C6.20273 3.02175 8.28705 0.9375 10.8489 0.9375H16.151C18.7129 0.9375 20.7972 3.02175 20.7972 5.58369V9.63C20.5842 9.56606 20.3586 9.53125 20.125 9.53125H19.8992V7.56519C19.8992 6.31931 18.8855 5.30575 17.6397 5.30575H13.5625C13.3035 5.30575 13.0937 5.51562 13.0937 5.7745C13.0937 6.03337 13.3035 6.24325 13.5625 6.24325H17.6396C18.3685 6.24325 18.9616 6.83625 18.9616 7.56519V13.0192C18.9616 15.3061 17.1011 17.1665 14.8144 17.1665H12.1856C9.8988 17.1665 8.03836 15.3061 8.03836 13.0192ZM11.131 19.5307C11.39 19.5307 11.5998 19.3208 11.5998 19.0619V18.0693C11.7922 18.0914 11.9874 18.1041 12.1856 18.1041H14.8144C15.0127 18.1041 15.2079 18.0914 15.4003 18.0693V19.062C15.4003 19.3209 15.6101 19.5308 15.869 19.5308H17.0788L13.5 23.9433L9.92117 19.5306H11.131V19.5307Z" fill="black"/>
<path d="M11.0376 11.2107V9.86931C11.0376 9.61043 10.8278 9.40056 10.5688 9.40056C10.3099 9.40056 10.1001 9.61043 10.1001 9.86931V11.2107C10.1001 11.4696 10.3099 11.6794 10.5688 11.6794C10.8278 11.6794 11.0376 11.4696 11.0376 11.2107Z" fill="black"/>
<path d="M16.431 11.6794C16.69 11.6794 16.8998 11.4696 16.8998 11.2107V9.86931C16.8998 9.61043 16.69 9.40056 16.431 9.40056C16.1721 9.40056 15.9623 9.61043 15.9623 9.86931V11.2107C15.9623 11.4696 16.1721 11.6794 16.431 11.6794Z" fill="black"/>
<path d="M13.1555 12.87C13.248 12.9701 13.3738 13.0208 13.5001 13.0208C13.6137 13.0208 13.7279 12.9797 13.8179 12.8965C14.0082 12.7209 14.02 12.4244 13.8444 12.2341L13.4159 11.7699L13.9385 10.3881C14.03 10.1459 13.908 9.87537 13.6659 9.78381C13.4237 9.69224 13.1532 9.81424 13.0615 10.0564L12.4365 11.7092C12.3738 11.8752 12.4102 12.0625 12.5306 12.1929L13.1555 12.87Z" fill="black"/>
<path d="M16.0173 14.5814C16.2004 14.3984 16.2004 14.1016 16.0173 13.9186C15.8342 13.7355 15.5374 13.7355 15.3544 13.9186C14.3319 14.9411 12.6681 14.9411 11.6456 13.9186C11.4625 13.7355 11.1658 13.7355 10.9827 13.9186C10.7996 14.1016 10.7996 14.3984 10.9827 14.5814C11.6556 15.2543 12.5496 15.6249 13.5 15.6249C14.4504 15.6249 15.3444 15.2543 16.0173 14.5814Z" fill="black"/>
<path d="M7.49994 27.625V26.875H8.24994C8.61181 26.875 8.90619 26.5806 8.90619 26.2188V25.0312C8.90619 24.6694 8.61181 24.375 8.24994 24.375H7.49994V23.625C7.49994 23.2631 7.20556 22.9688 6.84369 22.9688H5.65619C5.29431 22.9688 4.99994 23.2631 4.99994 23.625V24.375H4.24994C3.88806 24.375 3.59369 24.6694 3.59369 25.0312V26.2188C3.59369 26.5806 3.88806 26.875 4.24994 26.875H4.99994V27.625C4.99994 27.9869 5.29431 28.2812 5.65619 28.2812H6.84369C7.20563 28.2812 7.49994 27.9869 7.49994 27.625ZM6.56244 26.5938V27.3438H5.93744V26.5938C5.93744 26.2319 5.64306 25.9375 5.28119 25.9375H4.53119V25.3125H5.28119C5.64306 25.3125 5.93744 25.0181 5.93744 24.6562V23.9062H6.56244V24.6562C6.56244 25.0181 6.85681 25.3125 7.21869 25.3125H7.96869V25.9375H7.21869C6.85681 25.9375 6.56244 26.2319 6.56244 26.5938Z" fill="black"/>
<path d="M16.7187 24.5625V27.9375C16.7187 28.2994 17.0131 28.5938 17.3749 28.5938H22.7499C23.1118 28.5938 23.4062 28.2994 23.4062 27.9375V24.5625C23.4062 24.2006 23.1118 23.9062 22.7499 23.9062H17.3749C17.0131 23.9062 16.7187 24.2006 16.7187 24.5625ZM17.6562 24.8438H22.4687V27.6562H17.6562V24.8438Z" fill="black"/>
<path d="M20.9999 22.4688H19.1249C18.866 22.4688 18.6562 22.6786 18.6562 22.9375C18.6562 23.1964 18.866 23.4062 19.1249 23.4062H20.9999C21.2589 23.4062 21.4687 23.1964 21.4687 22.9375C21.4687 22.6786 21.2589 22.4688 20.9999 22.4688Z" fill="black"/>
</svg>
