<svg width="33" height="32" viewBox="0 0 33 32" fill="none" xmlns="http://www.w3.org/2000/svg">
<g clip-path="url(#clip0_50_1644)">
<path d="M31.7334 3.1611V12.8782C31.7334 13.434 31.2829 13.8846 30.727 13.8846H22.3981C21.8423 13.8846 21.3917 13.434 21.3917 12.8782V3.1611C21.3917 2.60525 21.8423 2.15469 22.3981 2.15469H24.2374V3.36934H22.7452V12.5311H30.38V3.36934H28.8877V2.15469H30.727C31.2828 2.15469 31.7334 2.60532 31.7334 3.1611Z" fill="#00ACEA"/>
<path d="M30.3799 3.36935V12.5312H22.7451V3.36935H24.2374V3.68168H28.8877V3.36935H28.9571H30.3799Z" fill="#00EFD1"/>
<path d="M28.8877 2.1547V3.68168H24.2374V1.39127H25.2785C25.411 0.792054 25.949 0.370387 26.5626 0.384868C27.1599 0.376033 27.6749 0.802748 27.7772 1.39127H28.8877V2.1547Z" fill="#00ACEA"/>
<path d="M19.4135 10.0324H10.113C8.92169 9.95897 7.99379 8.97023 7.99605 7.7767C7.98556 7.43654 8.06965 7.10016 8.23897 6.80497C8.33661 6.57209 8.47797 6.36006 8.65539 6.18031C9.07679 5.75413 9.65249 5.51633 10.2518 5.52091H14.9021C17.3937 5.52097 19.4135 7.54083 19.4135 10.0324Z" fill="#4B5D63"/>
<path d="M18.9624 14.4051C19.4802 14.9442 19.463 15.801 18.9238 16.3188C18.6815 16.5515 18.3613 16.6858 18.0254 16.6955H17.8171V14.0233H18.0254C18.3753 14.0247 18.7112 14.1615 18.9624 14.4051Z" fill="#EDB288"/>
<path d="M18.0254 28.8071C18.3303 29.0968 18.5054 29.4972 18.5112 29.9176C18.4979 30.3365 18.324 30.7341 18.0254 31.0281C17.7322 31.3236 17.331 31.4865 16.9149 31.4793C16.0718 31.4987 15.3726 30.8309 15.3532 29.9879C15.3527 29.9645 15.3527 29.941 15.3532 29.9176C15.3463 29.0552 16.0398 28.3504 16.9023 28.3434C17.3239 28.34 17.7289 28.5073 18.0254 28.8071Z" fill="#00EFD1"/>
<path d="M17.8172 14.0234V16.6956C17.8292 19.4644 16.1103 21.9458 13.5139 22.9075C12.7712 23.189 11.9828 23.3302 11.1887 23.3239C10.4682 23.3333 9.75163 23.2159 9.07183 22.9769C8.09678 22.6658 7.21432 22.1172 6.50377 21.3806C5.24449 20.1462 4.53208 18.4589 4.52563 16.6955V12.7046C4.52563 12.7046 7.71835 13.2252 10.1129 10.0324H17.8172V14.0234Z" fill="#F7CAA5"/>
<path d="M13.5834 24.608V24.6774L11.2235 26.9332L9.07184 24.6774V22.9769C9.75163 23.2159 10.4682 23.3334 11.1887 23.324C11.9828 23.3301 12.7712 23.1889 13.5139 22.9075L13.5833 23.081L13.5834 24.608Z" fill="#EDB288"/>
<path d="M10.113 10.0324C7.71842 13.2252 4.5257 12.7046 4.5257 12.7046V10.0324C4.5257 10.0324 5.01153 6.73556 8.23899 6.80497C8.06967 7.10017 7.98558 7.43654 7.99607 7.77671C7.99375 8.9703 8.92164 9.95904 10.113 10.0324Z" fill="#4B5D63"/>
<path d="M4.52568 14.0234V16.6956H4.35218C3.61426 16.8149 2.91939 16.3134 2.80002 15.5755C2.68072 14.8376 3.18217 14.1427 3.92008 14.0234C4.06316 14.0003 4.20903 14.0003 4.35211 14.0234H4.52568Z" fill="#EDB288"/>
<path d="M13.7221 29.4664H13.1669C12.8794 29.4664 12.6463 29.2333 12.6463 28.9459C12.6463 28.6584 12.8794 28.4253 13.1669 28.4253H13.7221C13.9897 28.4054 14.2228 28.6062 14.2427 28.8737C14.2445 28.8977 14.2445 28.9218 14.2427 28.9458C14.2427 29.2333 14.0097 29.4664 13.7221 29.4664Z" fill="#083863"/>
<path d="M13.7221 31.1669H13.1669C12.8794 31.1669 12.6463 30.9338 12.6463 30.6463C12.6463 30.3588 12.8794 30.1258 13.1669 30.1258H13.7221C13.9897 30.1058 14.2228 30.3066 14.2427 30.5743C14.2445 30.5982 14.2445 30.6223 14.2427 30.6463C14.2427 30.9338 14.0097 31.1669 13.7221 31.1669Z" fill="#083863"/>
<path d="M8.34312 16.279C7.45004 16.2606 6.73046 15.541 6.71206 14.6479V14.3703C6.69213 14.1027 6.89293 13.8696 7.16056 13.8497C7.18454 13.8479 7.20865 13.8479 7.23263 13.8497C7.52012 13.8497 7.7532 14.0828 7.7532 14.3703V14.6479C7.7532 14.9737 8.01731 15.2379 8.34319 15.2379C8.67505 15.2385 8.94945 14.9793 8.96785 14.6479V14.3703C8.96785 14.0828 9.20094 13.8497 9.48842 13.8497C9.77591 13.8497 10.009 14.0828 10.009 14.3703V14.6479C10.0092 15.5487 9.27912 16.2792 8.37826 16.2794C8.36651 16.2794 8.35481 16.2793 8.34312 16.279Z" fill="#083863"/>
<path d="M14.0345 16.279C13.5923 16.2801 13.1678 16.1053 12.8546 15.7932C12.5374 15.4977 12.3608 15.0813 12.3688 14.6479V14.3703C12.3688 14.0828 12.6019 13.8497 12.8894 13.8497C13.1768 13.8497 13.4099 14.0828 13.4099 14.3703V14.6479C13.4094 14.9737 13.673 15.2384 13.9989 15.2389C14.0108 15.2389 14.0227 15.2386 14.0346 15.2379C14.353 15.2206 14.6073 14.9664 14.6246 14.6479V14.3703C14.6246 14.0828 14.8577 13.8497 15.1452 13.8497C15.4127 13.8298 15.6458 14.0306 15.6657 14.2982C15.6675 14.3222 15.6675 14.3463 15.6657 14.3703V14.6479C15.6656 15.5487 14.9353 16.279 14.0345 16.279Z" fill="#083863"/>
<path d="M16.8455 24.2608H14.0692V23.2197C16.495 22.1526 18.1266 19.8256 18.303 17.1813C19.1943 17.0167 19.8468 16.2481 19.8647 15.342C19.8469 14.8525 19.6345 14.3903 19.2747 14.0579C18.9831 13.7906 18.6225 13.6102 18.2336 13.5374V10.7264H19.4135C19.701 10.7264 19.9341 10.4933 19.9341 10.2058C19.9341 7.42673 17.6812 5.17379 14.9021 5.17379H10.2518C9.52284 5.15094 8.81355 5.41226 8.27365 5.90254L7.92665 6.31896C5.21976 6.45779 4.17868 8.74819 4.00511 9.99758V13.5374C3.63705 13.6116 3.29908 13.7926 3.03338 14.0579C2.69255 14.3974 2.50464 14.861 2.51281 15.342C2.51394 16.2423 3.15507 17.0146 4.03979 17.1813C4.14301 18.9133 4.88491 20.5455 6.12201 21.7622C6.78673 22.4715 7.60615 23.0178 8.51657 23.3586V24.2609H5.80968C3.12671 24.222 0.920067 26.3654 0.881141 29.0483C0.880278 29.1067 0.880477 29.1651 0.881739 29.2235V31.3057C0.881739 31.5932 1.11482 31.8263 1.40231 31.8263C1.6898 31.8263 1.92289 31.5932 1.92289 31.3057V29.2235C1.92289 27.0719 3.31104 25.3367 5.39326 25.1979V25.9266C4.96628 26.0734 4.57577 26.3102 4.24803 26.6207C3.8249 27.123 3.61334 27.7701 3.65804 28.4253V31.271C3.65804 31.5487 3.79687 31.8957 4.07446 31.8957H4.87269C5.16018 31.8957 5.39326 31.6626 5.39326 31.3751C5.39326 31.0876 5.16018 30.8545 4.87269 30.8545H4.69919V28.4253C4.67488 28.0297 4.81271 27.6413 5.08093 27.3495C5.32365 27.0647 5.67849 26.9 6.05266 26.8983C6.85747 26.9166 7.49508 27.5837 7.47682 28.3885C7.47655 28.4008 7.47609 28.4131 7.47549 28.4253V30.8545H7.12848C6.841 30.8545 6.60791 31.0876 6.60791 31.3751C6.60791 31.6626 6.841 31.8957 7.12848 31.8957H8.13489C8.41255 31.8957 8.51663 31.5487 8.51663 31.271V28.4253C8.58147 27.1765 7.67443 26.088 6.43441 25.9266V25.302H8.82896L10.5989 27.1413V30.6463C10.5989 30.9338 10.8319 31.1669 11.1194 31.1669C11.4069 31.1669 11.64 30.9338 11.64 30.6463V27.176L13.7916 25.302H16.4985V27.9048C15.53 28.0768 14.8351 28.9344 14.8675 29.9176C14.8679 30.4718 15.0788 31.0052 15.4575 31.4098C15.8582 31.7947 16.3942 32.0066 16.9497 31.9998C17.4947 32.005 18.0193 31.7926 18.4073 31.4098C18.7956 31.0086 19.0187 30.4758 19.0319 29.9176C19.0465 29.3606 18.8334 28.8218 18.4419 28.4253C18.1931 28.1743 17.8815 27.9946 17.5396 27.9048V25.2326C19.2748 25.5449 21.01 27.2107 21.01 29.2235V31.3057C21.01 31.5932 21.2431 31.8263 21.5306 31.8263C21.8181 31.8263 22.0511 31.5932 22.0511 31.3057V29.2235C22.051 26.4472 19.6564 24.2608 16.8455 24.2608ZM4.00511 16.1055C3.69936 15.9823 3.51436 15.6692 3.55395 15.342C3.5495 15.137 3.62403 14.9382 3.76219 14.7868L4.00511 14.6133V16.1055ZM18.5112 14.7868C18.6647 14.9284 18.7418 15.1344 18.7195 15.342C18.742 15.6754 18.5452 15.9847 18.2336 16.1055V14.6133C18.5806 14.6479 18.4765 14.7173 18.5112 14.7868ZM8.69007 7.04784C8.78685 6.90463 8.90376 6.7761 9.03707 6.6661C9.36448 6.35795 9.80256 6.19528 10.2517 6.21494H14.902C16.9286 6.15024 18.6583 7.66759 18.8582 9.68531L10.217 9.6159C10.1823 9.6159 10.1823 9.54648 10.1476 9.54648C9.23011 9.49135 8.51484 8.73039 8.5165 7.81133C8.5167 7.54702 8.57602 7.28617 8.69007 7.04784ZM5.04619 10.0671C5.04619 9.7894 5.53202 7.74192 7.51016 7.39485C7.47954 7.51966 7.46785 7.64832 7.47549 7.77659C7.47197 8.89738 8.14273 9.91036 9.17597 10.3446C8.11111 11.5044 6.6202 12.1808 5.04626 12.2186L5.04619 10.0671ZM13.0281 24.4691L11.2235 26.2042L9.55771 24.4691V23.6709C10.0841 23.7729 10.6181 23.8309 11.1541 23.8444C11.7868 23.8471 12.417 23.7654 13.0281 23.6015V24.4691ZM13.271 22.4216C11.0384 23.2657 8.51776 22.7071 6.85083 20.9988C5.68693 19.8709 5.0349 18.3162 5.04626 16.6955V13.2598C7.08351 13.1585 8.99549 12.2463 10.3559 10.7265H17.1925V16.6955C17.2121 19.2366 15.6474 21.5213 13.271 22.4216ZM17.6784 29.1888C18.0808 29.6009 18.0731 30.2612 17.661 30.6637C17.249 31.0661 16.5886 31.0584 16.1861 30.6463C15.9793 30.4616 15.865 30.1947 15.8738 29.9176C15.8738 29.3426 16.3399 28.8765 16.9149 28.8765C17.2008 28.875 17.4754 28.9874 17.6784 29.1888Z" fill="#083863"/>
<path d="M30.727 1.70348H29.3388V1.39115C29.3388 1.11349 29.1653 1.00941 28.8876 1.00941H28.1589C27.8945 0.368936 27.2544 -0.034663 26.5625 0.003C25.8609 -0.0392463 25.2084 0.363422 24.9314 1.00941H24.2374C23.9597 1.00941 23.7862 1.11349 23.7862 1.39115V1.70348H22.051C21.3039 1.68209 20.6808 2.27042 20.6594 3.01763C20.658 3.06546 20.6592 3.11335 20.6629 3.16105V12.8434C20.6629 13.7109 21.2181 14.5438 22.051 14.5438H30.727C31.5599 14.5438 32.1151 13.7109 32.1151 12.8434V3.16098C32.1729 2.41576 31.6157 1.76473 30.8704 1.70694C30.8227 1.70328 30.7748 1.70209 30.727 1.70348ZM23.7515 3.78571C23.8209 4.13271 23.9944 4.13271 24.2374 4.13271H28.8876C29.114 4.1737 29.3306 4.02338 29.3716 3.79707C29.3723 3.79328 29.3729 3.78949 29.3735 3.78564H29.6859V12.1145H23.0922V3.78571H23.7515ZM24.8274 2.05049H25.2785C25.5364 2.01296 25.7439 1.81933 25.7991 1.56465C25.8896 1.21194 26.1989 0.958923 26.5626 0.939992C26.9335 0.95341 27.241 1.23166 27.2913 1.59939C27.3242 1.84683 27.528 2.03607 27.7772 2.05055H28.2977V3.09163H24.8274V2.05049ZM31.074 12.8434C31.074 13.121 31.0046 13.5028 30.727 13.5028H22.051C21.7734 13.5028 21.704 13.121 21.704 12.8434V3.16098C21.704 2.91806 21.7735 2.74456 22.051 2.74456H22.7451C22.3986 2.77053 22.1133 3.02733 22.051 3.36922V12.531C22.1238 12.867 22.4034 13.1186 22.7451 13.1557H30.38C30.6576 13.1557 30.727 12.8087 30.727 12.531V3.36922C30.727 3.05689 30.6575 2.74456 30.38 2.74456H30.727C31.0046 2.74456 31.074 2.91806 31.074 3.16098L31.074 12.8434Z" fill="#083863"/>
<path d="M26.9095 10.0323H24.1332C23.8458 10.0323 23.6127 9.79924 23.6127 9.51175C23.6127 9.22427 23.8458 8.99118 24.1332 8.99118H26.9095C27.197 8.99118 27.4301 9.22427 27.4301 9.51175C27.4301 9.79931 27.197 10.0323 26.9095 10.0323Z" fill="#083863"/>
<path d="M28.6448 11.4205H24.1333C23.8458 11.4205 23.6127 11.1874 23.6127 10.8999C23.6127 10.6124 23.8458 10.3793 24.1333 10.3793H28.6448C28.9322 10.3793 29.1653 10.6124 29.1653 10.8999C29.1653 11.1874 28.9322 11.4205 28.6448 11.4205Z" fill="#083863"/>
<path d="M26.2155 6.21494H25.8685V5.86794C25.8685 5.58045 25.6354 5.34737 25.3479 5.34737C25.0604 5.34737 24.8274 5.58045 24.8274 5.86794V6.21494H24.4804C24.1929 6.21494 23.9598 6.44803 23.9598 6.73552C23.9598 7.023 24.1929 7.25609 24.4804 7.25609H24.8274V7.60309C24.8274 7.89058 25.0604 8.12367 25.3479 8.12367C25.6354 8.12367 25.8685 7.89058 25.8685 7.60309V7.25609H26.2155C26.503 7.25609 26.7361 7.023 26.7361 6.73552C26.7361 6.44803 26.503 6.21494 26.2155 6.21494Z" fill="#083863"/>
</g>
<defs>
<clipPath id="clip0_50_1644">
<rect width="32" height="32" fill="white" transform="translate(0.5)"/>
</clipPath>
</defs>
</svg>
